<svg width="50" height="50" viewBox="0 0 50 50" fill="none" xmlns="http://www.w3.org/2000/svg">
<path d="M9.99463 12.286V0H18.1545V21.4502C18.1545 21.9537 18.3473 22.2652 19.0556 22.7593L34.9748 0H44.9369L27.666 24.5217L33.9736 32.2759C35.2251 33.6858 39.5934 34.0616 41.1823 32.0867C42.0834 30.9668 41.7357 29.7497 41.4326 27.4924C45.5876 33.7362 44.9369 42.145 33.5731 37.2105C18.2546 29.7583 4.53804 10.6244 5.0887 3.32326C6.4904 6.99899 8.69306 11.1782 9.99463 12.286Z" fill="white"/>
<path d="M18.2546 37.4119V47.9356H9.89453V28.0463C-1.24542 10.7473 -0.910186 6.47289 1.08388 0C4.43792 28.0463 52.2957 59.1138 46.6389 32.6788C58.7035 57.3515 35.7257 52.6183 18.2546 37.4119Z" fill="white"/>
</svg>
