<svg width="326" height="72" viewBox="0 0 326 72" fill="none" xmlns="http://www.w3.org/2000/svg">
<path d="M112.103 15.8965V57H104.293L83.8 32.0443V57H74.4049V15.8965H82.2733L102.708 40.8522V15.8965H112.103ZM135.627 40.8522L130.107 46.6067V57H120.653V15.8965H130.107V35.0977L148.31 15.8965H158.879L141.851 34.2169L159.878 57H148.78L135.627 40.8522ZM193.126 35.6262C195.475 36.37 197.315 37.6226 198.646 39.3842C199.977 41.1066 200.642 43.2401 200.642 45.7846C200.642 49.386 199.233 52.1654 196.415 54.1227C193.635 56.0409 189.564 57 184.201 57H162.945V15.8965H183.027C188.037 15.8965 191.874 16.8556 194.536 18.7738C197.237 20.6919 198.587 23.2952 198.587 26.5834C198.587 28.5799 198.098 30.361 197.119 31.9269C196.18 33.4927 194.849 34.7258 193.126 35.6262ZM172.399 23.0603V32.7489H181.852C184.201 32.7489 185.982 32.3379 187.196 31.5158C188.409 30.6938 189.016 29.4802 189.016 27.8753C189.016 26.2703 188.409 25.0763 187.196 24.2934C185.982 23.4713 184.201 23.0603 181.852 23.0603H172.399ZM183.496 49.8362C186.002 49.8362 187.881 49.4252 189.134 48.6031C190.425 47.7811 191.071 46.5088 191.071 44.7864C191.071 41.3807 188.546 39.6778 183.496 39.6778H172.399V49.8362H183.496ZM222.125 15.8965H231.637V57H222.125V15.8965ZM258.773 24.9393C262.688 24.9393 265.839 26.1137 268.227 28.4624C270.654 30.8112 271.867 34.2952 271.867 38.9145V57H262.707V40.3237C262.707 37.8184 262.159 35.9589 261.063 34.7454C259.967 33.4927 258.382 32.8664 256.307 32.8664C253.997 32.8664 252.157 33.5906 250.787 35.039C249.417 36.4483 248.732 38.5621 248.732 41.3807V57H239.572V25.409H248.321V29.1084C249.535 27.7774 251.042 26.7596 252.842 26.055C254.643 25.3112 256.62 24.9393 258.773 24.9393ZM294.607 57.4697C291.241 57.4697 288.207 56.7847 285.506 55.4146C282.844 54.0053 280.75 52.0676 279.223 49.6014C277.735 47.1351 276.992 44.3362 276.992 41.2045C276.992 38.0728 277.735 35.2739 279.223 32.8077C280.75 30.3415 282.844 28.4233 285.506 27.0532C288.207 25.6439 291.241 24.9393 294.607 24.9393C297.935 24.9393 300.832 25.6439 303.298 27.0532C305.803 28.4233 307.623 30.4002 308.759 32.9838L301.654 36.8006C300.01 33.9038 297.641 32.4553 294.549 32.4553C292.161 32.4553 290.184 33.2383 288.618 34.8041C287.052 36.37 286.269 38.5034 286.269 41.2045C286.269 43.9056 287.052 46.0391 288.618 47.6049C290.184 49.1707 292.161 49.9537 294.549 49.9537C297.68 49.9537 300.049 48.5053 301.654 45.6084L308.759 49.4839C307.623 51.9893 305.803 53.9466 303.298 55.3558C300.832 56.7651 297.935 57.4697 294.607 57.4697ZM317.47 57.4697C315.865 57.4697 314.514 56.9217 313.418 55.8256C312.322 54.7295 311.774 53.3594 311.774 51.7152C311.774 50.032 312.322 48.6814 313.418 47.6636C314.514 46.6067 315.865 46.0782 317.47 46.0782C319.075 46.0782 320.425 46.6067 321.521 47.6636C322.618 48.6814 323.166 50.032 323.166 51.7152C323.166 53.3594 322.618 54.7295 321.521 55.8256C320.425 56.9217 319.075 57.4697 317.47 57.4697Z" fill="white"/>
<path d="M9.99463 25.286V13H18.1545V34.4502C18.1545 34.9537 18.3473 35.2652 19.0556 35.7593L34.9748 13H44.9369L27.666 37.5217L33.9736 45.2759C35.2251 46.6858 39.5934 47.0616 41.1823 45.0867C42.0834 43.9668 41.7357 42.7497 41.4326 40.4924C45.5876 46.7362 44.9369 55.145 33.5731 50.2105C18.2546 42.7583 4.53804 23.6244 5.0887 16.3233C6.4904 19.999 8.69306 24.1782 9.99463 25.286Z" fill="white"/>
<path d="M18.2546 50.4119V60.9356H9.89453V41.0463C-1.24542 23.7473 -0.910186 19.4729 1.08388 13C4.43792 41.0463 52.2957 72.1138 46.6389 45.6788C58.7035 70.3515 35.7257 65.6183 18.2546 50.4119Z" fill="white"/>
</svg>
