<svg width="73" height="79" viewBox="0 0 73 79" fill="none" xmlns="http://www.w3.org/2000/svg">
<path fill-rule="evenodd" clip-rule="evenodd" d="M0 3.35106C0 2.46231 0.353057 1.60995 0.981504 0.981504C1.60995 0.353058 2.46231 0 3.35106 0H68.6968C69.5856 0 70.4379 0.353058 71.0664 0.981504C71.6948 1.60995 72.0479 2.46231 72.0479 3.35106C72.0479 4.23982 71.6948 5.09218 71.0664 5.72062C70.4379 6.34907 69.5856 6.70213 68.6968 6.70213H65.9171C66.47 17.1491 62.7688 24.3086 58.7391 29.5463C57.2814 31.4414 55.6628 33.2157 54.3375 34.6701C53.7511 35.3152 53.2183 35.8983 52.786 36.3993C52.0068 37.299 51.4874 37.986 51.164 38.549C50.849 39.1019 50.839 39.3398 50.839 39.375C50.839 39.4102 50.849 39.6481 51.164 40.201C51.4874 40.764 52.0068 41.451 52.786 42.3507C53.2183 42.8534 53.7494 43.4348 54.3375 44.0782C55.6628 45.5326 57.2814 47.3086 58.7391 49.2037C62.7688 54.4414 66.47 61.6009 65.9171 72.0479H68.6968C69.5856 72.0479 70.4379 72.4009 71.0664 73.0294C71.6948 73.6578 72.0479 74.5102 72.0479 75.3989C72.0479 76.2877 71.6948 77.1401 71.0664 77.7685C70.4379 78.3969 69.5856 78.75 68.6968 78.75H3.35106C2.46231 78.75 1.60995 78.3969 0.981504 77.7685C0.353057 77.1401 0 76.2877 0 75.3989C0 74.5102 0.353057 73.6578 0.981504 73.0294C1.60995 72.4009 2.46231 72.0479 3.35106 72.0479H6.13077C5.57952 61.6009 9.28077 54.4414 13.3104 49.2037C14.7681 47.3086 16.3867 45.5343 17.712 44.0799C18.3002 43.4348 18.8313 42.8517 19.2653 42.3507C20.0444 41.451 20.5638 40.764 20.8855 40.201C21.2022 39.6481 21.2122 39.4102 21.2122 39.375C21.2122 39.3398 21.2022 39.1019 20.8855 38.549C20.5638 37.986 20.0444 37.299 19.2653 36.3993C18.8313 35.8966 18.3018 35.3152 17.7137 34.6718C16.3867 33.2174 14.7681 31.4414 13.3104 29.5463C9.28077 24.3086 5.57952 17.1491 6.13077 6.70213H3.35106C2.46231 6.70213 1.60995 6.34907 0.981504 5.72062C0.353057 5.09218 0 4.23982 0 3.35106ZM12.8446 72.0479H59.2049C59.7545 63.3351 56.7586 57.6199 53.4277 53.2903C52.1308 51.603 50.8893 50.2458 49.6661 48.9088C49.0059 48.1936 48.3557 47.4691 47.7158 46.7356C46.8563 45.742 45.995 44.663 45.3449 43.5253C44.6881 42.3759 44.1369 40.9785 44.1369 39.375C44.1369 37.7715 44.6898 36.3724 45.3449 35.2247C45.995 34.0853 46.8563 33.008 47.7158 32.0144C48.3642 31.2654 49.0127 30.5567 49.6661 29.8412C50.8893 28.5041 52.1292 27.147 53.4277 25.4597C56.7586 21.1301 59.7545 15.4166 59.2049 6.70213H12.843C12.2951 15.4149 15.2909 21.1301 18.6235 25.4597C19.9187 27.1453 21.1603 28.5041 22.3851 29.8412C23.0386 30.555 23.6853 31.2654 24.3338 32.0144C25.1933 33.008 26.0545 34.087 26.7046 35.2247C27.3614 36.3724 27.9144 37.7715 27.9144 39.375C27.9144 40.9785 27.3614 42.3776 26.7046 43.5253C26.0545 44.6646 25.1933 45.742 24.3338 46.7356C23.6853 47.4846 23.0369 48.1933 22.3834 48.9088C21.1603 50.2458 19.9204 51.603 18.6219 53.2903C15.2909 57.6199 12.2951 63.3334 12.8446 72.0479ZM36.0239 48.3424C33.9647 48.3424 31.82 49.1635 29.8496 50.3263C27.8557 51.5042 25.897 53.1144 24.1779 54.8887C22.4572 56.6631 20.9324 58.6419 19.8299 60.5889C18.7459 62.4973 17.9734 64.5365 17.9734 66.3913C17.9734 66.8357 18.15 67.2618 18.4642 67.5761C18.7784 67.8903 19.2046 68.0668 19.649 68.0668H52.3989C52.8433 68.0668 53.2695 67.8903 53.5837 67.5761C53.8979 67.2618 54.0744 66.8357 54.0744 66.3913C54.0744 64.5365 53.3004 62.4973 52.218 60.5889C51.1138 58.6436 49.5907 56.6631 47.8699 54.8887C46.1492 53.1144 44.1922 51.5042 42.1966 50.3263C40.2262 49.1635 38.0815 48.3424 36.0239 48.3424ZM36.0239 15.8941C40.9148 15.8941 45.8928 16.6297 49.7465 18.1711C50.143 18.3299 50.4638 18.6341 50.6435 19.0215C50.8232 19.4089 50.8481 19.8503 50.7133 20.2555C49.7616 23.1089 47.2785 26.2103 44.6194 28.5561C43.2673 29.7491 41.8079 30.8013 40.377 31.567C38.9762 32.3143 37.4582 32.8639 36.0273 32.8639C34.5981 32.8639 33.0784 32.3143 31.6776 31.567C30.2467 30.8013 28.7856 29.7491 27.4335 28.5561C24.7727 26.2103 22.2863 23.1106 21.3345 20.2555C21.1993 19.8499 21.2243 19.4079 21.4044 19.0201C21.5844 18.6323 21.9059 18.328 22.303 18.1695C26.1551 16.6313 31.1314 15.8958 36.0239 15.8941Z" fill="#F4A300"/>
</svg>
