<svg width="84" height="80" viewBox="0 0 84 80" fill="none" xmlns="http://www.w3.org/2000/svg">
<path d="M41.7635 66.8344L21.5181 79.0304C20.6237 79.5995 19.6887 79.8435 18.713 79.7622C17.7373 79.6808 16.8836 79.3556 16.1518 78.7865C15.4201 78.2173 14.8509 77.5067 14.4444 76.6546C14.0379 75.8025 13.9566 74.8464 14.2005 73.7861L19.5667 50.7356L1.63854 35.2466C0.825473 34.5148 0.318117 33.6806 0.116476 32.744C-0.0851652 31.8073 -0.0249983 30.8934 0.296977 30.0023C0.618953 29.1112 1.10679 28.3794 1.7605 27.807C2.41421 27.2346 3.30859 26.8687 4.44363 26.7094L28.104 24.636L37.251 2.92705C37.6575 1.95137 38.2885 1.2196 39.1438 0.731762C39.9992 0.24392 40.8724 0 41.7635 0C42.6547 0 43.5279 0.24392 44.3833 0.731762C45.2386 1.2196 45.8696 1.95137 46.2761 2.92705L55.4231 24.636L79.0835 26.7094C80.2217 26.872 81.1161 27.2378 81.7666 27.807C82.417 28.3761 82.9049 29.1079 83.2301 30.0023C83.5553 30.8967 83.6171 31.8122 83.4155 32.7488C83.2139 33.6855 82.7049 34.5181 81.8885 35.2466L63.9604 50.7356L69.3266 73.7861C69.5705 74.8431 69.4892 75.7993 69.0827 76.6546C68.6762 77.51 68.107 78.2206 67.3753 78.7865C66.6435 79.3524 65.7898 79.6776 64.8141 79.7622C63.8384 79.8467 62.9034 79.6028 62.009 79.0304L41.7635 66.8344Z" fill="#F4A300"/>
</svg>
