<svg width="111" height="83" viewBox="0 0 111 83" fill="none" xmlns="http://www.w3.org/2000/svg">
<path d="M35.7734 41.7267C31.2523 37.3444 26.2624 35.5977 22.6083 35.5977C15.451 35.5977 0.773438 43.976 0.773438 60.7267V73.5977H25.9731V68.673C25.9731 62.8504 26.1404 57.0125 28.3881 52.146C30.1815 48.2602 32.6925 44.6533 35.7734 41.7267Z" fill="#F4A300"/>
<path d="M75.7734 41.7267C80.2945 37.3444 85.2844 35.5977 88.9386 35.5977C96.0959 35.5977 110.773 43.976 110.773 60.7267V73.5977L85.0829 73.291V68.3663C85.0829 62.5438 85.4065 57.0125 83.1588 52.146C81.3654 48.2602 78.8544 44.6533 75.7734 41.7267Z" fill="#F4A300"/>
<path d="M55.2734 34.5977C46.4282 34.5977 28.7734 45.3177 28.7734 66.5977V82.5977H81.7734V66.5977C81.7734 45.3177 64.1187 34.5977 55.2734 34.5977Z" fill="#F4A300"/>
<ellipse cx="56.2415" cy="16.5451" rx="14.8196" ry="16.5451" fill="#F4A300"/>
<ellipse cx="88.5726" cy="18.0505" rx="11.4515" ry="12.7848" fill="#F4A300"/>
<ellipse cx="21.8812" cy="18.0505" rx="11.4515" ry="12.7848" fill="#F4A300"/>
</svg>
